<?xml version="1.0" encoding="UTF-8"?>
<svg id="_Слой_2" data-name="Слой 2" xmlns="http://www.w3.org/2000/svg" xmlns:xlink="http://www.w3.org/1999/xlink" viewBox="0 0 289.13 433.31">
  <defs>
    <style>
      .cls-1 {
        fill: #0f1a2b;
      }

      .cls-2 {
        fill: url(#_Безымянный_градиент_43);
      }

      .cls-3 {
        fill: #238ccc;
      }

      .cls-4 {
        fill: url(#_Безымянный_градиент_11);
      }

      .cls-5 {
        fill: url(#_Безымянный_градиент_25);
      }

      .cls-6 {
        fill: #163c67;
      }

      .cls-7 {
        fill: url(#_Безымянный_градиент_25-2);
      }
    </style>
    <linearGradient id="_Безымянный_градиент_43" data-name="Безымянный градиент 43" x1="75.11" y1="72.28" x2="214.02" y2="72.28" gradientTransform="translate(93.46 -81.05) rotate(45)" gradientUnits="userSpaceOnUse">
      <stop offset=".5" stop-color="#76cbe8"/>
      <stop offset=".5" stop-color="#238ccc"/>
    </linearGradient>
    <linearGradient id="_Безымянный_градиент_11" data-name="Безымянный градиент 11" x1="110.55" y1="396.46" x2="178.59" y2="396.46" gradientTransform="translate(322.68 13.9) rotate(45)" gradientUnits="userSpaceOnUse">
      <stop offset=".5" stop-color="#163c67"/>
      <stop offset=".5" stop-color="#18223c"/>
    </linearGradient>
    <linearGradient id="_Безымянный_градиент_25" data-name="Безымянный градиент 25" x1="2.83" y1="144.57" x2="77.36" y2="144.57" gradientTransform="translate(113.97 13.99) rotate(45)" gradientUnits="userSpaceOnUse">
      <stop offset=".5" stop-color="#238ccc"/>
      <stop offset=".5" stop-color="#143c66"/>
    </linearGradient>
    <linearGradient id="_Безымянный_градиент_25-2" data-name="Безымянный градиент 25" x1="211.78" x2="286.31" gradientTransform="translate(175.17 -133.76) rotate(45)" xlink:href="#_Безымянный_градиент_25"/>
  </defs>
  <g id="_Слой_1-2" data-name="Слой 1">
    <g>
      <g>
        <rect class="cls-2" x="95.45" y="23.17" width="98.22" height="98.22" transform="translate(-8.77 123.4) rotate(-45)"/>
        <path class="cls-1" d="M144.57,5.66l66.63,66.63-66.63,66.63-66.63-66.63L144.57,5.66M144.57,0l-72.28,72.28,72.28,72.28,72.28-72.28L144.57,0h0Z"/>
      </g>
      <g>
        <rect class="cls-4" x="120.51" y="372.4" width="48.11" height="48.11" transform="translate(-238 218.34) rotate(-45)"/>
        <path class="cls-1" d="M144.57,365.27l31.19,31.19-31.19,31.19-31.19-31.19,31.19-31.19M144.57,359.61l-36.85,36.85,36.85,36.85,36.85-36.85-36.85-36.85h0Z"/>
      </g>
      <g>
        <polygon class="cls-3" points="74.89 77.72 142.57 145.4 142.57 358.78 109.25 392.1 74.89 77.72"/>
        <path class="cls-1" d="M77.5,83.15l63.07,63.07v211.73l-29.78,29.78L77.5,83.15M72.28,72.28l35.43,324.18,36.85-36.85v-215.04l-72.28-72.28h0Z"/>
      </g>
      <g>
        <polygon class="cls-6" points="146.57 358.78 146.57 145.4 214.24 77.72 179.88 392.1 146.57 358.78"/>
        <path class="cls-1" d="M211.64,83.15l-33.29,304.58-29.78-29.78v-211.73l63.07-63.07M216.85,72.28l-72.28,72.28v215.04l36.85,36.85,35.43-324.18h0Z"/>
      </g>
      <g>
        <polygon class="cls-3" points="72.62 358.53 4.53 151.93 38.33 185.73 103.31 389.22 72.62 358.53"/>
        <path class="cls-1" d="M9.06,159.29l27.51,27.51,62.32,195.18-24.53-24.53L9.06,159.29M0,144.57l70.87,215.04,36.85,36.85L40.09,184.66,0,144.57H0Z"/>
      </g>
      <g>
        <rect class="cls-5" x="13.74" y="118.22" width="52.7" height="52.7" transform="translate(-90.48 70.69) rotate(-45)"/>
        <path class="cls-1" d="M40.09,110.13l34.44,34.44-34.44,34.44L5.66,144.57l34.44-34.44M40.09,104.47L0,144.57l40.09,40.09,40.09-40.09-40.09-40.09h0Z"/>
      </g>
      <g>
        <polygon class="cls-6" points="42.37 185.21 78.65 148.93 103.56 376.88 42.37 185.21"/>
        <path class="cls-1" d="M77.11,153.29l22.3,204.01-54.77-171.54,32.47-32.47M80.18,144.57l-40.09,40.09,67.62,211.8-27.53-251.89h0Z"/>
      </g>
      <g>
        <polygon class="cls-6" points="250.8 185.73 284.6 151.93 216.52 358.53 185.83 389.22 250.8 185.73"/>
        <path class="cls-1" d="M280.07,159.29l-65.31,198.17-24.53,24.53,62.32-195.18,27.51-27.51M289.13,144.57l-40.09,40.09-67.62,211.8,36.85-36.85,70.87-215.04h0Z"/>
      </g>
      <g>
        <rect class="cls-7" x="222.69" y="118.22" width="52.7" height="52.7" transform="translate(-29.28 218.44) rotate(-45)"/>
        <path class="cls-1" d="M249.04,110.13l34.44,34.44-34.44,34.44-34.44-34.44,34.44-34.44M249.04,104.47l-40.09,40.09,40.09,40.09,40.09-40.09-40.09-40.09h0Z"/>
      </g>
      <g>
        <polygon class="cls-3" points="210.48 148.93 246.77 185.21 185.57 376.88 210.48 148.93"/>
        <path class="cls-1" d="M212.02,153.29l32.47,32.47-54.77,171.54,22.3-204.01M208.95,144.57l-27.53,251.89,67.62-211.8-40.09-40.09h0Z"/>
      </g>
    </g>
  </g>
</svg>