<?xml version="1.0" encoding="UTF-8"?>
<svg id="_Слой_2" data-name="Слой 2" xmlns="http://www.w3.org/2000/svg" xmlns:xlink="http://www.w3.org/1999/xlink" viewBox="0 0 1772.61 433.31">
  <defs>
    <style>
      .cls-1 {
        fill: #163c67;
      }

      .cls-2 {
        fill: url(#_Безымянный_градиент_43);
      }

      .cls-3 {
        fill: #fefefc;
      }

      .cls-4 {
        fill: #218bcc;
      }

      .cls-5 {
        fill: #0f1a2b;
      }

      .cls-6 {
        fill: url(#_Безымянный_градиент_11);
      }

      .cls-7 {
        fill: url(#_Безымянный_градиент_25);
      }

      .cls-8 {
        fill: url(#_Безымянный_градиент_25-2);
      }
    </style>
    <linearGradient id="_Безымянный_градиент_43" data-name="Безымянный градиент 43" x1="1558.59" y1="72.28" x2="1697.5" y2="72.28" gradientTransform="translate(527.95 -1130.03) rotate(45)" gradientUnits="userSpaceOnUse">
      <stop offset=".5" stop-color="#76cae7"/>
      <stop offset=".5" stop-color="#218bcc"/>
    </linearGradient>
    <linearGradient id="_Безымянный_градиент_11" data-name="Безымянный градиент 11" x1="1594.02" y1="396.46" x2="1662.07" y2="396.46" gradientTransform="translate(757.2 -1035.09) rotate(45)" gradientUnits="userSpaceOnUse">
      <stop offset=".5" stop-color="#163c67"/>
      <stop offset=".5" stop-color="#19223c"/>
    </linearGradient>
    <linearGradient id="_Безымянный_градиент_25" data-name="Безымянный градиент 25" x1="1486.31" y1="144.57" x2="1560.83" y2="144.57" gradientTransform="translate(548.47 -1034.98) rotate(45)" gradientUnits="userSpaceOnUse">
      <stop offset=".5" stop-color="#228bcb"/>
      <stop offset=".5" stop-color="#133c66"/>
    </linearGradient>
    <linearGradient id="_Безымянный_градиент_25-2" data-name="Безымянный градиент 25" x1="1695.25" x2="1769.78" gradientTransform="translate(609.65 -1182.72) rotate(45)" xlink:href="#_Безымянный_градиент_25"/>
  </defs>
  <g id="_Слой_1-2" data-name="Слой 1">
    <g>
      <g>
        <g>
          <rect class="cls-2" x="1578.93" y="23.17" width="98.22" height="98.22" transform="translate(425.73 1172.37) rotate(-45)"/>
          <path class="cls-5" d="M1628.04,5.66l66.63,66.63-66.63,66.63-66.63-66.63,66.63-66.63M1628.04,0l-72.28,72.28,72.28,72.28,72.28-72.28L1628.04,0h0Z"/>
        </g>
        <g>
          <rect class="cls-6" x="1603.99" y="372.4" width="48.11" height="48.11" transform="translate(196.52 1267.34) rotate(-45)"/>
          <path class="cls-5" d="M1628.04,365.27l31.19,31.19-31.19,31.19-31.19-31.19,31.19-31.19M1628.04,359.61l-36.85,36.85,36.85,36.85,36.85-36.85-36.85-36.85h0Z"/>
        </g>
        <g>
          <polygon class="cls-4" points="1558.37 77.72 1626.04 145.4 1626.04 358.78 1592.73 392.1 1558.37 77.72"/>
          <path class="cls-5" d="M1560.97,83.15l63.07,63.07v211.73l-29.78,29.78-33.29-304.58M1555.76,72.28l35.43,324.18,36.85-36.85v-215.04l-72.28-72.28h0Z"/>
        </g>
        <g>
          <polygon class="cls-1" points="1630.04 358.78 1630.04 145.4 1697.72 77.72 1663.36 392.1 1630.04 358.78"/>
          <path class="cls-5" d="M1695.12,83.15l-33.29,304.58-29.78-29.78v-211.73l63.07-63.07M1700.33,72.28l-72.28,72.28v215.04l36.85,36.85,35.43-324.18h0Z"/>
        </g>
        <g>
          <polygon class="cls-4" points="1556.09 358.53 1488.01 151.93 1521.81 185.73 1586.78 389.22 1556.09 358.53"/>
          <path class="cls-5" d="M1492.54,159.29l27.51,27.51,62.32,195.18-24.53-24.53-65.31-198.17M1483.48,144.57l70.87,215.04,36.85,36.85-67.62-211.8-40.09-40.09h0Z"/>
        </g>
        <g>
          <rect class="cls-7" x="1497.22" y="118.22" width="52.7" height="52.7" transform="translate(344.02 1119.67) rotate(-45)"/>
          <path class="cls-5" d="M1523.57,110.13l34.44,34.44-34.44,34.44-34.44-34.44,34.44-34.44M1523.57,104.47l-40.09,40.09,40.09,40.09,40.09-40.09-40.09-40.09h0Z"/>
        </g>
        <g>
          <polygon class="cls-1" points="1525.85 185.21 1562.13 148.93 1587.04 376.88 1525.85 185.21"/>
          <path class="cls-5" d="M1560.59,153.29l22.3,204.01-54.77-171.54,32.47-32.47M1563.66,144.57l-40.09,40.09,67.62,211.8-27.53-251.89h0Z"/>
        </g>
        <g>
          <polygon class="cls-1" points="1734.28 185.73 1768.08 151.93 1699.99 358.53 1669.31 389.22 1734.28 185.73"/>
          <path class="cls-5" d="M1763.55,159.29l-65.31,198.17-24.53,24.53,62.32-195.18,27.51-27.51M1772.61,144.57l-40.09,40.09-67.62,211.8,36.85-36.85,70.87-215.04h0Z"/>
        </g>
        <g>
          <rect class="cls-8" x="1706.17" y="118.22" width="52.7" height="52.7" transform="translate(405.2 1267.4) rotate(-45)"/>
          <path class="cls-5" d="M1732.52,110.13l34.44,34.44-34.44,34.44-34.44-34.44,34.44-34.44M1732.52,104.47l-40.09,40.09,40.09,40.09,40.09-40.09-40.09-40.09h0Z"/>
        </g>
        <g>
          <polygon class="cls-4" points="1693.96 148.93 1730.24 185.21 1669.05 376.88 1693.96 148.93"/>
          <path class="cls-5" d="M1695.5,153.29l32.47,32.47-54.77,171.54,22.3-204.01M1692.43,144.57l-27.53,251.89,67.62-211.8-40.09-40.09h0Z"/>
        </g>
      </g>
      <g>
        <path class="cls-3" d="M0,355.57V76.47h52.6v279.1H0ZM38.39,314.87l-6.72-68.33,111.91-170.07h66.22L38.39,314.87ZM159.13,355.57l-81-141.28,45.3-28.6,98.09,169.88h-62.39Z"/>
        <path class="cls-3" d="M428.82,76.47l-82.16,171.41v107.69h-52.59v-107.69l-82.16-171.41h55.09l53.36,120.16,53.36-120.16h55.09Z"/>
        <path class="cls-3" d="M423.06,355.57l106.72-279.1h33.4l106.73,279.1h-56.63l-66.8-190.61-66.8,190.61h-56.63ZM474.31,310.84v-50.67h146.84v50.67h-146.84Z"/>
        <path class="cls-3" d="M704.46,355.38V76.47h64.3l103.85,213.84-4.61,4.99V76.47h50.29v278.91h-64.69l-103.46-210.57,4.61-4.99v215.56h-50.29Z"/>
        <path class="cls-3" d="M1030.4,76.47v279.1h-54.51V76.47h54.51Z"/>
        <path class="cls-3" d="M1049.59,127.15v-50.68h204.62v50.68h-204.62ZM1125.61,355.57V99.31h52.6v256.26h-52.6Z"/>
        <path class="cls-3" d="M1277.25,355.57V76.47h52.6v279.1h-52.6ZM1296.25,127.15v-50.68h167.96v50.68h-167.96ZM1296.25,242.32v-50.68h146.84v50.68h-146.84ZM1296.25,355.57v-50.68h167.96v50.68h-167.96Z"/>
      </g>
    </g>
  </g>
</svg>